<svg width="500" height="500" viewBox="0 0 500 500" xmlns="http://www.w3.org/2000/svg">
  <!-- BG Text -->
  <text x="50" y="300" font-family="Arial Black" font-size="180" fill="#3B82F6">
    <tspan x="50" y="300">BGT</tspan>
  </text>
  
  <!-- Circuit Lines -->
  <g fill="none" stroke="#22D3EE" stroke-width="8">
    <path d="M30 50 L60 50 L60 80" />
    <path d="M90 50 L120 50 L120 80" />
    <path d="M400 350 L430 350 L430 380" />
    <path d="M370 350 L400 350 L400 380" />
  </g>

  <!-- Magnifying Glass -->
  <circle cx="380" cy="180" r="60" fill="none" stroke="#7C3AED" stroke-width="15"/>
  <path d="M420 220 L450 250" stroke="#7C3AED" stroke-width="15" stroke-linecap="round"/>
  
  <!-- Ladybug -->
  <g transform="translate(380,180) scale(0.8)">
    <circle cx="0" cy="0" r="30" fill="#EF4444"/>
    <circle cx="-10" cy="-10" r="8" fill="#1E293B"/>
    <circle cx="10" cy="-10" r="8" fill="#1E293B"/>
    <path d="M0 -5 L0 5" stroke="#1E293B" stroke-width="4"/>
    <path d="M-15 -25 L-5 -35" stroke="#1E293B" stroke-width="4"/>
    <path d="M15 -25 L5 -35" stroke="#1E293B" stroke-width="4"/>
  </g>

  <!-- Bottom Text -->
  <text x="50" y="380" font-family="Arial" font-size="45" fill="#1E293B">
    <tspan x="50" y="380">Bug Tracker</tspan>
  </text>
  <text x="50" y="430" font-family="Arial" font-size="35" fill="#64748B">
    <tspan x="50" y="430">Solucionador de errores</tspan>
  </text>
</svg> 